<svg xmlns="http://www.w3.org/2000/svg" xmlns:xlink="http://www.w3.org/1999/xlink" id="图层_1" width="16" height="16" x="0" style="enable-background:new 0 0 16 16" y="0" version="1.1" viewBox="0 0 16 16" xml:space="preserve"><g><circle cx="8" cy="8" r="4" fill="#f0a742"/><rect width="1" height="2" x="7.5" y="1" fill="#f0a742"/><rect width="1" height="2" x="7.5" y="13" fill="#f0a742"/><rect width="2" height="1" x="13" y="7.5" fill="#f0a742"/><rect width="2" height="1" x="1" y="7.5" fill="#f0a742"/><rect width="2" height="1" x="11.2" y="3.3" fill="#f0a742" transform="matrix(0.7071 -0.7071 0.7071 0.7071 0.929 9.7574)"/><rect width="2" height="1" x="2.8" y="11.7" fill="#f0a742" transform="matrix(0.7071 -0.7071 0.7071 0.7071 -7.5564 6.2426)"/><rect width="1" height="2" x="11.7" y="11.2" fill="#f0a742" transform="matrix(0.7071 -0.7071 0.7071 0.7071 -5.0711 12.2427)"/><rect width="1" height="2" x="3.3" y="2.8" fill="#f0a742" transform="matrix(0.7071 -0.7071 0.7071 0.7071 -1.5563 3.7573)"/></g></svg>