<svg xmlns="http://www.w3.org/2000/svg" xmlns:xlink="http://www.w3.org/1999/xlink" id="图层_1" width="16" height="16" x="0" y="0" style="enable-background:new 0 0 16 16" fill="#777" version="1.1" viewBox="0 0 16 16" xml:space="preserve"><g><g><polygon points="4 3 3 3 3 4 4 4 4 3"/></g><g><polygon points="14 3 5 3 5 4 14 4 14 3"/></g><g><polygon points="4 7 3 7 3 8 4 8 4 7"/></g><g><polygon points="14 7 5 7 5 8 14 8 14 7"/></g><g><polygon points="4 11 3 11 3 12 4 12 4 11"/></g><g><polygon points="14 11 5 11 5 12 14 12 14 11"/></g></g></svg>